<svg width="40" height="40" viewBox="0 0 40 40" fill="none" xmlns="http://www.w3.org/2000/svg">
<path d="M27.2 21.25V18.75H32V21.25H27.2ZM28.64 30L24.8 27L26.24 25L30.08 28L28.64 30ZM26.24 15L24.8 13L28.64 10L30.08 12L26.24 15ZM11.6 28.75V23.75H10.4C9.74 23.75 9.175 23.5052 8.705 23.0156C8.235 22.526 8 21.9375 8 21.25V18.75C8 18.0625 8.235 17.474 8.705 16.9844C9.175 16.4948 9.74 16.25 10.4 16.25H15.2L21.2 12.5V27.5L15.2 23.75H14V28.75H11.6ZM22.4 24.1875V15.8125C22.94 16.3125 23.375 16.9219 23.705 17.6406C24.035 18.3594 24.2 19.1458 24.2 20C24.2 20.8542 24.035 21.6406 23.705 22.3594C23.375 23.0781 22.94 23.6875 22.4 24.1875Z" fill="black" fill-opacity="0.56"/>
</svg>
